<svg width="98" height="97" viewBox="0 0 98 97" fill="none" xmlns="http://www.w3.org/2000/svg">
<path d="M35.2678 48.5C31.6303 48.5 28.599 47.1359 26.174 44.4078C23.749 41.6797 22.7891 38.4969 23.2943 34.8594L25.2646 20.0063C26.073 14.2469 28.7001 9.47165 33.1459 5.68057C37.5917 1.88948 42.7954 -0.00403521 48.7568 6.45634e-06C54.7183 6.45634e-06 59.9219 1.89555 64.3678 5.68663C68.8136 9.47771 71.4407 14.2509 72.249 20.0063L74.2193 34.8594C74.7245 38.4969 73.7647 41.6797 71.3397 44.4078C68.9147 47.1359 65.8834 48.5 62.2459 48.5H35.2678ZM35.2678 36.375H62.2459L60.2756 21.825C59.8714 18.9958 58.5841 16.6719 56.4138 14.8531C54.2434 13.0344 51.6911 12.125 48.7568 12.125C45.8266 12.125 43.2743 13.0344 41.0999 14.8531C38.9255 16.6719 37.6382 18.9958 37.2381 21.825L35.2678 36.375ZM0.256836 97V80.025C0.256836 76.5896 1.14196 73.431 2.91221 70.5493C4.68246 67.6676 7.03067 65.471 9.95684 63.9594C16.2214 60.8271 22.587 58.4769 29.0537 56.9087C35.5204 55.3405 42.0881 54.5585 48.7568 54.5625C55.4256 54.5625 61.9933 55.3466 68.46 56.9148C74.9266 58.4829 81.2923 60.8311 87.5568 63.9594C90.487 65.475 92.8373 67.6737 94.6075 70.5554C96.3778 73.4371 97.2609 76.5936 97.2568 80.025V97H0.256836ZM12.3818 84.875H85.1318V80.025C85.1318 78.9136 84.853 77.9031 84.2952 76.9938C83.7375 76.0844 83.0059 75.3771 82.1006 74.8719C76.6443 72.1438 71.1376 70.0987 65.5803 68.7366C60.023 67.3746 54.4152 66.6915 48.7568 66.6875C43.0985 66.6875 37.4907 67.3706 31.9334 68.7366C26.3761 70.1027 20.8693 72.1478 15.4131 74.8719C14.5037 75.3771 13.7701 76.0844 13.2124 76.9938C12.6546 77.9031 12.3778 78.9136 12.3818 80.025V84.875Z" fill="white"/>
</svg>
