<svg width="97" height="97" viewBox="0 0 97 97" fill="none" xmlns="http://www.w3.org/2000/svg">
<path d="M92.5909 17.6364H4.40909C3.23973 17.6364 2.11826 18.1009 1.29139 18.9278C0.464528 19.7546 0 20.8761 0 22.0455V39.6818C0.00766966 42.4108 0.859237 45.0706 2.43796 47.2966C4.01667 49.5226 6.24526 51.2058 8.81818 52.1155V92.5909C8.81818 93.7603 9.28271 94.8817 10.1096 95.7086C10.9364 96.5355 12.0579 97 13.2273 97H83.7727C84.9421 97 86.0636 96.5355 86.8904 95.7086C87.7173 94.8817 88.1818 93.7603 88.1818 92.5909V52.1155C90.7547 51.2058 92.9833 49.5226 94.562 47.2966C96.1408 45.0706 96.9923 42.4108 97 39.6818V22.0455C97 20.8761 96.5355 19.7546 95.7086 18.9278C94.8817 18.1009 93.7603 17.6364 92.5909 17.6364ZM61.7273 26.4545H70.5455V39.6818C70.5455 40.8512 70.0809 41.9727 69.2541 42.7995C68.4272 43.6264 67.3057 44.0909 66.1364 44.0909C64.967 44.0909 63.8455 43.6264 63.0187 42.7995C62.1918 41.9727 61.7273 40.8512 61.7273 39.6818V26.4545ZM44.0909 26.4545H52.9091V39.6818C52.9091 40.8512 52.4446 41.9727 51.6177 42.7995C50.7908 43.6264 49.6694 44.0909 48.5 44.0909C47.3306 44.0909 46.2092 43.6264 45.3823 42.7995C44.5554 41.9727 44.0909 40.8512 44.0909 39.6818V26.4545ZM26.4545 26.4545H35.2727V39.6818C35.2727 40.8512 34.8082 41.9727 33.9813 42.7995C33.1545 43.6264 32.033 44.0909 30.8636 44.0909C29.6943 44.0909 28.5728 43.6264 27.7459 42.7995C26.9191 41.9727 26.4545 40.8512 26.4545 39.6818V26.4545ZM13.2273 44.0909C12.0579 44.0909 10.9364 43.6264 10.1096 42.7995C9.28271 41.9727 8.81818 40.8512 8.81818 39.6818V26.4545H17.6364V39.6818C17.6364 40.8512 17.1718 41.9727 16.345 42.7995C15.5181 43.6264 14.3966 44.0909 13.2273 44.0909ZM57.3182 88.1818H39.6818V79.3636C39.6818 77.0249 40.6109 74.782 42.2646 73.1282C43.9183 71.4745 46.1613 70.5455 48.5 70.5455C50.8387 70.5455 53.0817 71.4745 54.7354 73.1282C56.3891 74.782 57.3182 77.0249 57.3182 79.3636V88.1818ZM79.3636 88.1818H66.1364V79.3636C66.1364 74.6862 64.2783 70.2003 60.9708 66.8928C57.6633 63.5854 53.1775 61.7273 48.5 61.7273C43.8225 61.7273 39.3367 63.5854 36.0292 66.8928C32.7217 70.2003 30.8636 74.6862 30.8636 79.3636V88.1818H17.6364V52.1155C19.257 51.5139 20.752 50.6169 22.0455 49.47C24.4706 51.6391 27.61 52.8382 30.8636 52.8382C34.1172 52.8382 37.2567 51.6391 39.6818 49.47C42.1069 51.6391 45.2464 52.8382 48.5 52.8382C51.7536 52.8382 54.8931 51.6391 57.3182 49.47C59.7433 51.6391 62.8828 52.8382 66.1364 52.8382C69.39 52.8382 72.5294 51.6391 74.9545 49.47C76.248 50.6169 77.743 51.5139 79.3636 52.1155V88.1818ZM88.1818 39.6818C88.1818 40.8512 87.7173 41.9727 86.8904 42.7995C86.0636 43.6264 84.9421 44.0909 83.7727 44.0909C82.6034 44.0909 81.4819 43.6264 80.655 42.7995C79.8282 41.9727 79.3636 40.8512 79.3636 39.6818V26.4545H88.1818V39.6818ZM14.55 8.81818H83.7727C84.9421 8.81818 86.0636 8.35365 86.8904 7.52679C87.7173 6.69992 88.1818 5.57845 88.1818 4.40909C88.1818 3.23973 87.7173 2.11826 86.8904 1.29139C86.0636 0.464528 84.9421 0 83.7727 0H14.55C13.3806 0 12.2592 0.464528 11.4323 1.29139C10.6054 2.11826 10.1409 3.23973 10.1409 4.40909C10.1409 5.57845 10.6054 6.69992 11.4323 7.52679C12.2592 8.35365 13.3806 8.81818 14.55 8.81818V8.81818Z" fill="white"/>
</svg>
