<svg width="29" height="29" viewBox="0 0 29 29" fill="none" xmlns="http://www.w3.org/2000/svg">
<path d="M27.3104 5.20198H1.30049C0.955582 5.20198 0.624796 5.33899 0.380906 5.58288C0.137016 5.82677 0 6.15756 0 6.50247V11.7044C0.00226222 12.5094 0.253438 13.2939 0.719093 13.9505C1.18475 14.6071 1.84209 15.1035 2.60099 15.3718V27.3104C2.60099 27.6553 2.738 27.9861 2.98189 28.23C3.22578 28.4739 3.55657 28.6109 3.90148 28.6109H24.7094C25.0543 28.6109 25.3851 28.4739 25.629 28.23C25.8729 27.9861 26.0099 27.6553 26.0099 27.3104V15.3718C26.7688 15.1035 27.4261 14.6071 27.8918 13.9505C28.3574 13.2939 28.6086 12.5094 28.6109 11.7044V6.50247C28.6109 6.15756 28.4739 5.82677 28.23 5.58288C27.9861 5.33899 27.6553 5.20198 27.3104 5.20198ZM18.2069 7.80297H20.8079V11.7044C20.8079 12.0494 20.6709 12.3801 20.427 12.624C20.1831 12.8679 19.8523 13.0049 19.5074 13.0049C19.1625 13.0049 18.8317 12.8679 18.5878 12.624C18.3439 12.3801 18.2069 12.0494 18.2069 11.7044V7.80297ZM13.0049 7.80297H15.6059V11.7044C15.6059 12.0494 15.4689 12.3801 15.225 12.624C14.9811 12.8679 14.6503 13.0049 14.3054 13.0049C13.9605 13.0049 13.6297 12.8679 13.3858 12.624C13.142 12.3801 13.0049 12.0494 13.0049 11.7044V7.80297ZM7.80297 7.80297H10.404V11.7044C10.404 12.0494 10.2669 12.3801 10.023 12.624C9.77916 12.8679 9.44837 13.0049 9.10346 13.0049C8.75855 13.0049 8.42776 12.8679 8.18387 12.624C7.93998 12.3801 7.80297 12.0494 7.80297 11.7044V7.80297ZM3.90148 13.0049C3.55657 13.0049 3.22578 12.8679 2.98189 12.624C2.738 12.3801 2.60099 12.0494 2.60099 11.7044V7.80297H5.20198V11.7044C5.20198 12.0494 5.06496 12.3801 4.82107 12.624C4.57718 12.8679 4.2464 13.0049 3.90148 13.0049ZM16.9064 26.0099H11.7044V23.4089C11.7044 22.7191 11.9785 22.0575 12.4663 21.5697C12.954 21.0819 13.6156 20.8079 14.3054 20.8079C14.9953 20.8079 15.6568 21.0819 16.1446 21.5697C16.6324 22.0575 16.9064 22.7191 16.9064 23.4089V26.0099ZM23.4089 26.0099H19.5074V23.4089C19.5074 22.0292 18.9594 20.7061 17.9838 19.7305C17.0082 18.755 15.6851 18.2069 14.3054 18.2069C12.9258 18.2069 11.6026 18.755 10.6271 19.7305C9.65152 20.7061 9.10346 22.0292 9.10346 23.4089V26.0099H5.20198V15.3718C5.68 15.1944 6.12096 14.9298 6.50247 14.5915C7.21777 15.2313 8.14378 15.585 9.10346 15.585C10.0631 15.585 10.9891 15.2313 11.7044 14.5915C12.4197 15.2313 13.3458 15.585 14.3054 15.585C15.2651 15.585 16.1911 15.2313 16.9064 14.5915C17.6217 15.2313 18.5477 15.585 19.5074 15.585C20.4671 15.585 21.3931 15.2313 22.1084 14.5915C22.4899 14.9298 22.9309 15.1944 23.4089 15.3718V26.0099ZM26.0099 11.7044C26.0099 12.0494 25.8729 12.3801 25.629 12.624C25.3851 12.8679 25.0543 13.0049 24.7094 13.0049C24.3645 13.0049 24.0337 12.8679 23.7898 12.624C23.5459 12.3801 23.4089 12.0494 23.4089 11.7044V7.80297H26.0099V11.7044ZM4.29163 2.60099H24.7094C25.0543 2.60099 25.3851 2.46397 25.629 2.22008C25.8729 1.97619 26.0099 1.64541 26.0099 1.30049C26.0099 0.955582 25.8729 0.624796 25.629 0.380906C25.3851 0.137016 25.0543 0 24.7094 0H4.29163C3.94672 0 3.61593 0.137016 3.37204 0.380906C3.12815 0.624796 2.99114 0.955582 2.99114 1.30049C2.99114 1.64541 3.12815 1.97619 3.37204 2.22008C3.61593 2.46397 3.94672 2.60099 4.29163 2.60099V2.60099Z" fill="#6D8B74"/>
</svg>
