<svg width="95" height="97" viewBox="0 0 95 97" fill="none" xmlns="http://www.w3.org/2000/svg">
<path d="M94.4597 31.9625L90.519 56.2638C90.0331 58.9483 88.0434 60.5805 85.7488 60.6112H28.298L27.1574 67.5225H81.9119C84.795 67.7581 86.7507 69.9535 86.7859 72.7617C86.5762 75.8545 84.5339 77.9626 81.9119 78.0009H21.35C18.0747 77.6843 16.1216 74.8778 16.476 71.7584L19.0686 56.598L15.1279 14.015L3.92816 10.2251C1.19124 9.05702 0.0741852 6.39554 0.713408 3.6482C1.77627 0.784947 4.32306 -0.523234 6.83179 0.192515L21.1426 5.09737C23.0705 5.87423 24.1796 7.57063 24.461 9.55635L25.2906 18.0283L90.2078 25.8315C93.1906 26.526 94.8099 29.0657 94.4597 31.9625V31.9625ZM36.1892 89.0018C36.1892 93.4191 32.858 97 28.7486 97C24.6393 97 21.3081 93.4191 21.3081 89.0018C21.3081 84.5844 24.6393 81.0035 28.7486 81.0035C32.8579 81.0036 36.1892 84.5846 36.1892 89.0018ZM80.6092 89.0018C80.6092 93.4191 77.2779 97 73.1685 97C69.0592 97 65.728 93.4191 65.728 89.0018C65.728 84.5844 69.0592 81.0035 73.1685 81.0035C77.2779 81.0036 80.6092 84.5846 80.6092 89.0018Z" fill="white"/>
</svg>
