<svg width="2388" height="1098" viewBox="0 0 2388 1098" fill="none" xmlns="http://www.w3.org/2000/svg">
<path d="M733.625 768.479C697.963 768.479 666.497 761.924 639.226 748.813C611.956 735.178 590.716 714.725 575.508 687.454C560.299 659.659 552.695 624.784 552.695 582.83V342.901H651.026V569.456C651.026 607.216 659.417 635.535 676.199 654.415C693.505 672.77 717.892 681.948 749.358 681.948C772.433 681.948 792.361 677.228 809.143 667.788C826.449 658.348 839.822 644.188 849.262 625.309C859.227 606.429 864.209 583.092 864.209 555.297V342.901H962.54V762.973H868.929V649.695L885.448 684.308C871.289 711.578 850.573 732.555 823.303 747.24C796.032 761.399 766.139 768.479 733.625 768.479ZM1269.07 768.479C1228.69 768.479 1192.24 759.564 1159.73 741.733C1127.73 723.378 1102.56 698.205 1084.21 666.215C1065.85 634.224 1056.67 596.465 1056.67 552.937C1056.67 509.409 1065.85 471.649 1084.21 439.659C1102.56 407.668 1127.73 382.758 1159.73 364.927C1192.24 347.096 1228.69 338.181 1269.07 338.181C1304.21 338.181 1335.67 346.047 1363.47 361.78C1391.26 376.989 1413.29 400.326 1429.55 431.792C1445.8 463.259 1453.93 503.64 1453.93 552.937C1453.93 601.709 1446.07 642.091 1430.33 674.081C1414.6 705.547 1392.84 729.147 1365.04 744.88C1337.25 760.613 1305.26 768.479 1269.07 768.479ZM1280.87 684.308C1304.47 684.308 1325.45 679.063 1343.8 668.575C1362.68 658.086 1377.63 642.877 1388.64 622.949C1400.18 603.02 1405.95 579.683 1405.95 552.937C1405.95 525.666 1400.18 502.329 1388.64 482.925C1377.63 462.996 1362.68 447.788 1343.8 437.299C1325.45 426.81 1304.47 421.566 1280.87 421.566C1257.27 421.566 1236.03 426.81 1217.15 437.299C1198.8 447.788 1183.85 462.996 1172.31 482.925C1161.3 502.329 1155.79 525.666 1155.79 552.937C1155.79 579.683 1161.3 603.02 1172.31 622.949C1183.85 642.877 1198.8 658.086 1217.15 668.575C1236.03 679.063 1257.27 684.308 1280.87 684.308ZM1408.31 762.973V663.855L1412.24 552.15L1404.37 440.446V179.277H1501.92V762.973H1408.31ZM1828.79 768.479C1782.12 768.479 1741.21 759.302 1706.07 740.946C1671.46 722.067 1644.45 696.37 1625.05 663.855C1606.17 631.34 1596.73 594.367 1596.73 552.937C1596.73 510.982 1605.91 474.009 1624.26 442.019C1643.14 409.504 1668.84 384.069 1701.35 365.714C1734.39 347.359 1771.89 338.181 1813.84 338.181C1854.75 338.181 1891.2 347.096 1923.19 364.927C1955.18 382.758 1980.35 407.931 1998.71 440.446C2017.06 472.961 2026.24 511.244 2026.24 555.297C2026.24 559.492 2025.98 564.212 2025.45 569.456C2025.45 574.701 2025.19 579.683 2024.67 584.403H1674.61V519.111H1972.75L1934.2 539.564C1934.73 515.44 1929.74 494.2 1919.26 475.845C1908.77 457.49 1894.34 443.068 1875.99 432.579C1858.16 422.09 1837.44 416.846 1813.84 416.846C1789.72 416.846 1768.48 422.09 1750.13 432.579C1732.29 443.068 1718.13 457.752 1707.65 476.632C1697.68 494.987 1692.7 516.751 1692.7 541.924V557.657C1692.7 582.83 1698.47 605.118 1710.01 624.522C1721.54 643.926 1737.8 658.872 1758.78 669.361C1779.76 679.85 1803.88 685.094 1831.15 685.094C1854.75 685.094 1875.99 681.423 1894.87 674.081C1913.75 666.739 1930.53 655.201 1945.21 639.468L1997.92 700.041C1979.04 722.067 1955.18 739.111 1926.34 751.173C1898.02 762.71 1865.5 768.479 1828.79 768.479ZM2120.69 762.973V342.901H2214.31V458.539L2203.29 424.713C2215.88 396.393 2235.54 374.891 2262.29 360.207C2289.56 345.523 2323.39 338.181 2363.77 338.181V431.792C2359.57 430.744 2355.64 430.219 2351.97 430.219C2348.3 429.695 2344.63 429.433 2340.96 429.433C2303.72 429.433 2274.09 440.446 2252.06 462.472C2230.04 483.974 2219.02 516.226 2219.02 559.23V762.973H2120.69Z" fill="#6D8B74"/>
<path d="M733.625 768.479C697.963 768.479 666.497 761.924 639.226 748.813C611.956 735.178 590.716 714.725 575.508 687.454C560.299 659.659 552.695 624.784 552.695 582.83V342.901H651.026V569.456C651.026 607.216 659.417 635.535 676.199 654.415C693.505 672.77 717.892 681.948 749.358 681.948C772.433 681.948 792.361 677.228 809.143 667.788C826.449 658.348 839.822 644.188 849.262 625.309C859.227 606.429 864.209 583.092 864.209 555.297V342.901H962.54V762.973H868.929V649.695L885.448 684.308C871.289 711.578 850.573 732.555 823.303 747.24C796.032 761.399 766.139 768.479 733.625 768.479ZM1269.07 768.479C1228.69 768.479 1192.24 759.564 1159.73 741.733C1127.73 723.378 1102.56 698.205 1084.21 666.215C1065.85 634.224 1056.67 596.465 1056.67 552.937C1056.67 509.409 1065.85 471.649 1084.21 439.659C1102.56 407.668 1127.73 382.758 1159.73 364.927C1192.24 347.096 1228.69 338.181 1269.07 338.181C1304.21 338.181 1335.67 346.047 1363.47 361.78C1391.26 376.989 1413.29 400.326 1429.55 431.792C1445.8 463.259 1453.93 503.64 1453.93 552.937C1453.93 601.709 1446.07 642.091 1430.33 674.081C1414.6 705.547 1392.84 729.147 1365.04 744.88C1337.25 760.613 1305.26 768.479 1269.07 768.479ZM1280.87 684.308C1304.47 684.308 1325.45 679.063 1343.8 668.575C1362.68 658.086 1377.63 642.877 1388.64 622.949C1400.18 603.02 1405.95 579.683 1405.95 552.937C1405.95 525.666 1400.18 502.329 1388.64 482.925C1377.63 462.996 1362.68 447.788 1343.8 437.299C1325.45 426.81 1304.47 421.566 1280.87 421.566C1257.27 421.566 1236.03 426.81 1217.15 437.299C1198.8 447.788 1183.85 462.996 1172.31 482.925C1161.3 502.329 1155.79 525.666 1155.79 552.937C1155.79 579.683 1161.3 603.02 1172.31 622.949C1183.85 642.877 1198.8 658.086 1217.15 668.575C1236.03 679.063 1257.27 684.308 1280.87 684.308ZM1408.31 762.973V663.855L1412.24 552.15L1404.37 440.446V179.277H1501.92V762.973H1408.31ZM1828.79 768.479C1782.12 768.479 1741.21 759.302 1706.07 740.946C1671.46 722.067 1644.45 696.37 1625.05 663.855C1606.17 631.34 1596.73 594.367 1596.73 552.937C1596.73 510.982 1605.91 474.009 1624.26 442.019C1643.14 409.504 1668.84 384.069 1701.35 365.714C1734.39 347.359 1771.89 338.181 1813.84 338.181C1854.75 338.181 1891.2 347.096 1923.19 364.927C1955.18 382.758 1980.35 407.931 1998.71 440.446C2017.06 472.961 2026.24 511.244 2026.24 555.297C2026.24 559.492 2025.98 564.212 2025.45 569.456C2025.45 574.701 2025.19 579.683 2024.67 584.403H1674.61V519.111H1972.75L1934.2 539.564C1934.73 515.44 1929.74 494.2 1919.26 475.845C1908.77 457.49 1894.34 443.068 1875.99 432.579C1858.16 422.09 1837.44 416.846 1813.84 416.846C1789.72 416.846 1768.48 422.09 1750.13 432.579C1732.29 443.068 1718.13 457.752 1707.65 476.632C1697.68 494.987 1692.7 516.751 1692.7 541.924V557.657C1692.7 582.83 1698.47 605.118 1710.01 624.522C1721.54 643.926 1737.8 658.872 1758.78 669.361C1779.76 679.85 1803.88 685.094 1831.15 685.094C1854.75 685.094 1875.99 681.423 1894.87 674.081C1913.75 666.739 1930.53 655.201 1945.21 639.468L1997.92 700.041C1979.04 722.067 1955.18 739.111 1926.34 751.173C1898.02 762.71 1865.5 768.479 1828.79 768.479ZM2120.69 762.973V342.901H2214.31V458.539L2203.29 424.713C2215.88 396.393 2235.54 374.891 2262.29 360.207C2289.56 345.523 2323.39 338.181 2363.77 338.181V431.792C2359.57 430.744 2355.64 430.219 2351.97 430.219C2348.3 429.695 2344.63 429.433 2340.96 429.433C2303.72 429.433 2274.09 440.446 2252.06 462.472C2230.04 483.974 2219.02 516.226 2219.02 559.23V762.973H2120.69Z" fill="#6D8B74"/>
<path d="M545.294 961.06H627.722V975.318H545.294V961.06ZM547.077 1041.48H530.591V885.538H637.525V899.796H547.077V1041.48ZM711.985 1042.6C700.697 1042.6 690.524 1040.07 681.464 1035.02C672.553 1029.82 665.498 1022.77 660.3 1013.86C655.102 1004.8 652.503 994.477 652.503 982.892C652.503 971.159 655.102 960.837 660.3 951.926C665.498 943.015 672.553 936.034 681.464 930.985C690.375 925.935 700.549 923.41 711.985 923.41C723.569 923.41 733.817 925.935 742.728 930.985C751.788 936.034 758.842 943.015 763.892 951.926C769.09 960.837 771.689 971.159 771.689 982.892C771.689 994.477 769.09 1004.8 763.892 1013.86C758.842 1022.77 751.788 1029.82 742.728 1035.02C733.668 1040.07 723.421 1042.6 711.985 1042.6ZM711.985 1028.56C720.45 1028.56 727.95 1026.71 734.485 1022.99C741.02 1019.13 746.144 1013.78 749.857 1006.95C753.718 999.972 755.649 991.952 755.649 982.892C755.649 973.684 753.718 965.664 749.857 958.832C746.144 952 741.02 946.728 734.485 943.015C727.95 939.153 720.524 937.223 712.207 937.223C703.89 937.223 696.464 939.153 689.93 943.015C683.395 946.728 678.197 952 674.335 958.832C670.474 965.664 668.543 973.684 668.543 982.892C668.543 991.952 670.474 999.972 674.335 1006.95C678.197 1013.78 683.395 1019.13 689.93 1022.99C696.464 1026.71 703.816 1028.56 711.985 1028.56ZM851.656 1042.6C840.369 1042.6 830.195 1040.07 821.135 1035.02C812.224 1029.82 805.17 1022.77 799.972 1013.86C794.773 1004.8 792.174 994.477 792.174 982.892C792.174 971.159 794.773 960.837 799.972 951.926C805.17 943.015 812.224 936.034 821.135 930.985C830.047 925.935 840.22 923.41 851.656 923.41C863.241 923.41 873.488 925.935 882.399 930.985C891.459 936.034 898.514 943.015 903.563 951.926C908.762 960.837 911.361 971.159 911.361 982.892C911.361 994.477 908.762 1004.8 903.563 1013.86C898.514 1022.77 891.459 1029.82 882.399 1035.02C873.34 1040.07 863.092 1042.6 851.656 1042.6ZM851.656 1028.56C860.122 1028.56 867.622 1026.71 874.157 1022.99C880.691 1019.13 885.815 1013.78 889.528 1006.95C893.39 999.972 895.321 991.952 895.321 982.892C895.321 973.684 893.39 965.664 889.528 958.832C885.815 952 880.691 946.728 874.157 943.015C867.622 939.153 860.196 937.223 851.879 937.223C843.562 937.223 836.136 939.153 829.601 943.015C823.066 946.728 817.868 952 814.007 958.832C810.145 965.664 808.214 973.684 808.214 982.892C808.214 991.952 810.145 999.972 814.007 1006.95C817.868 1013.78 823.066 1019.13 829.601 1022.99C836.136 1026.71 843.488 1028.56 851.656 1028.56ZM990.214 1042.6C979.075 1042.6 969.05 1040.07 960.139 1035.02C951.376 1029.97 944.47 1022.99 939.42 1014.08C934.371 1005.02 931.846 994.625 931.846 982.892C931.846 971.011 934.371 960.614 939.42 951.703C944.47 942.792 951.376 935.886 960.139 930.985C969.05 925.935 979.075 923.41 990.214 923.41C1000.46 923.41 1009.6 925.712 1017.62 930.317C1025.78 934.921 1032.24 941.678 1037 950.589C1041.9 959.352 1044.35 970.12 1044.35 982.892C1044.35 995.516 1041.97 1006.28 1037.22 1015.19C1032.47 1024.11 1026.01 1030.94 1017.84 1035.69C1009.82 1040.29 1000.61 1042.6 990.214 1042.6ZM991.328 1028.56C999.645 1028.56 1007.07 1026.71 1013.61 1022.99C1020.29 1019.13 1025.49 1013.78 1029.2 1006.95C1033.06 999.972 1034.99 991.952 1034.99 982.892C1034.99 973.684 1033.06 965.664 1029.2 958.832C1025.49 952 1020.29 946.728 1013.61 943.015C1007.07 939.153 999.645 937.223 991.328 937.223C983.159 937.223 975.807 939.153 969.272 943.015C962.738 946.728 957.539 952 953.678 958.832C949.817 965.664 947.886 973.684 947.886 982.892C947.886 991.952 949.817 999.972 953.678 1006.95C957.539 1013.78 962.738 1019.13 969.272 1022.99C975.807 1026.71 983.159 1028.56 991.328 1028.56ZM1035.44 1041.48V1006.28L1037 982.669L1034.77 959.055V876.181H1050.59V1041.48H1035.44ZM1224.45 1042.82C1212.72 1042.82 1201.81 1040.89 1191.71 1037.03C1181.76 1033.02 1173.07 1027.45 1165.64 1020.32C1158.36 1013.04 1152.65 1004.65 1148.49 995.145C1144.48 985.491 1142.47 974.946 1142.47 963.51C1142.47 952.075 1144.48 941.604 1148.49 932.099C1152.65 922.445 1158.36 914.054 1165.64 906.925C1173.07 899.647 1181.76 894.078 1191.71 890.216C1201.66 886.206 1212.57 884.201 1224.45 884.201C1236.19 884.201 1247.03 886.206 1256.98 890.216C1266.93 894.078 1275.54 899.573 1282.82 906.702C1290.25 913.831 1295.97 922.222 1299.98 931.876C1304.13 941.53 1306.21 952.075 1306.21 963.51C1306.21 974.946 1304.13 985.491 1299.98 995.145C1295.97 1004.8 1290.25 1013.19 1282.82 1020.32C1275.54 1027.45 1266.93 1033.02 1256.98 1037.03C1247.03 1040.89 1236.19 1042.82 1224.45 1042.82ZM1224.45 1028.12C1233.81 1028.12 1242.43 1026.56 1250.3 1023.44C1258.32 1020.17 1265.22 1015.64 1271.01 1009.85C1276.96 1003.91 1281.56 997.076 1284.83 989.353C1288.09 981.481 1289.73 972.867 1289.73 963.51C1289.73 954.154 1288.09 945.614 1284.83 937.891C1281.56 930.019 1276.96 923.188 1271.01 917.395C1265.22 911.455 1258.32 906.925 1250.3 903.806C1242.43 900.538 1233.81 898.905 1224.45 898.905C1215.1 898.905 1206.41 900.538 1198.39 903.806C1190.37 906.925 1183.39 911.455 1177.45 917.395C1171.66 923.188 1167.05 930.019 1163.64 937.891C1160.37 945.614 1158.73 954.154 1158.73 963.51C1158.73 972.719 1160.37 981.258 1163.64 989.13C1167.05 997.001 1171.66 1003.91 1177.45 1009.85C1183.39 1015.64 1190.37 1020.17 1198.39 1023.44C1206.41 1026.56 1215.1 1028.12 1224.45 1028.12ZM1339.82 1041.48V924.524H1354.97V956.382L1353.41 950.812C1356.68 941.901 1362.18 935.143 1369.9 930.539C1377.62 925.787 1387.2 923.41 1398.64 923.41V938.782C1398.04 938.782 1397.45 938.782 1396.86 938.782C1396.26 938.634 1395.67 938.559 1395.07 938.559C1382.75 938.559 1373.09 942.347 1366.11 949.921C1359.13 957.347 1355.64 967.966 1355.64 981.778V1041.48H1339.82ZM1472.97 1042.6C1461.83 1042.6 1451.81 1040.07 1442.9 1035.02C1434.13 1029.97 1427.23 1022.99 1422.18 1014.08C1417.13 1005.02 1414.6 994.625 1414.6 982.892C1414.6 971.011 1417.13 960.614 1422.18 951.703C1427.23 942.792 1434.13 935.886 1442.9 930.985C1451.81 925.935 1461.83 923.41 1472.97 923.41C1483.22 923.41 1492.35 925.712 1500.37 930.317C1508.54 934.921 1515 941.678 1519.76 950.589C1524.66 959.352 1527.11 970.12 1527.11 982.892C1527.11 995.516 1524.73 1006.28 1519.98 1015.19C1515.23 1024.11 1508.76 1030.94 1500.6 1035.69C1492.58 1040.29 1483.37 1042.6 1472.97 1042.6ZM1474.09 1028.56C1482.4 1028.56 1489.83 1026.71 1496.36 1022.99C1503.05 1019.13 1508.25 1013.78 1511.96 1006.95C1515.82 999.972 1517.75 991.952 1517.75 982.892C1517.75 973.684 1515.82 965.664 1511.96 958.832C1508.25 952 1503.05 946.728 1496.36 943.015C1489.83 939.153 1482.4 937.223 1474.09 937.223C1465.92 937.223 1458.57 939.153 1452.03 943.015C1445.5 946.728 1440.3 952 1436.44 958.832C1432.57 965.664 1430.64 973.684 1430.64 982.892C1430.64 991.952 1432.57 999.972 1436.44 1006.95C1440.3 1013.78 1445.5 1019.13 1452.03 1022.99C1458.57 1026.71 1465.92 1028.56 1474.09 1028.56ZM1518.2 1041.48V1006.28L1519.76 982.669L1517.53 959.055V876.181H1533.34V1041.48H1518.2ZM1627.08 1042.6C1614.9 1042.6 1604.2 1040.07 1595 1035.02C1585.79 1029.82 1578.58 1022.77 1573.39 1013.86C1568.19 1004.8 1565.59 994.477 1565.59 982.892C1565.59 971.308 1568.04 961.06 1572.94 952.149C1577.99 943.238 1584.82 936.257 1593.44 931.208C1602.2 926.009 1612 923.41 1622.84 923.41C1633.83 923.41 1643.56 925.935 1652.03 930.985C1660.64 935.886 1667.4 942.866 1672.3 951.926C1677.2 960.837 1679.65 971.159 1679.65 982.892C1679.65 983.635 1679.58 984.452 1679.43 985.343C1679.43 986.085 1679.43 986.902 1679.43 987.793H1577.62V975.986H1670.96L1664.72 980.664C1664.72 972.199 1662.87 964.699 1659.16 958.164C1655.59 951.48 1650.69 946.282 1644.45 942.569C1638.21 938.856 1631.01 937 1622.84 937C1614.82 937 1607.62 938.856 1601.23 942.569C1594.85 946.282 1589.87 951.48 1586.31 958.164C1582.74 964.847 1580.96 972.496 1580.96 981.11V983.56C1580.96 992.472 1582.89 1000.34 1586.75 1007.17C1590.76 1013.86 1596.26 1019.13 1603.24 1022.99C1610.37 1026.71 1618.46 1028.56 1627.52 1028.56C1634.65 1028.56 1641.26 1027.3 1647.35 1024.77C1653.59 1022.25 1658.93 1018.39 1663.39 1013.19L1672.3 1023.44C1667.1 1029.68 1660.57 1034.43 1652.69 1037.7C1644.97 1040.96 1636.43 1042.6 1627.08 1042.6ZM1711.85 1041.48V924.524H1726.99V956.382L1725.44 950.812C1728.7 941.901 1734.2 935.143 1741.92 930.539C1749.64 925.787 1759.22 923.41 1770.66 923.41V938.782C1770.07 938.782 1769.47 938.782 1768.88 938.782C1768.28 938.634 1767.69 938.559 1767.09 938.559C1754.77 938.559 1745.11 942.347 1738.13 949.921C1731.15 957.347 1727.66 967.966 1727.66 981.778V1041.48H1711.85Z" fill="#6D8B74"/>
<path d="M175.887 228.651L176.879 96.8815L289.507 161.907L175.887 228.651Z" fill="#6D8B74"/>
<path d="M263.583 229.976L264.576 98.2056L377.203 163.231L263.583 229.976Z" fill="#6D8B74"/>
<path d="M348.276 229.975L349.269 98.205L461.896 163.23L348.276 229.975Z" fill="#6D8B74"/>
<path d="M176.896 396.765H455.481L176.896 529.424V396.765Z" fill="#6D8B74"/>
<rect x="0.0908203" y="101.835" width="136.005" height="661.893" fill="#6D8B74"/>
</svg>
