<svg width="207" height="95" viewBox="0 0 207 95" fill="none" xmlns="http://www.w3.org/2000/svg">
<path d="M63.24 66.4747C60.1655 66.4747 57.4527 65.9096 55.1016 64.7792C52.7505 63.6037 50.9194 61.8404 49.6082 59.4893C48.2971 57.093 47.6415 54.0864 47.6415 50.4693V29.7844H56.1189V49.3164C56.1189 52.5717 56.8423 55.0132 58.2891 56.6409C59.7812 58.2234 61.8836 59.0146 64.5963 59.0146C66.5857 59.0146 68.3038 58.6077 69.7506 57.7938C71.2426 56.98 72.3956 55.7593 73.2094 54.1316C74.0685 52.5039 74.498 50.492 74.498 48.0957V29.7844H82.9754V66H74.9049V56.234L76.3291 59.2181C75.1084 61.5691 73.3224 63.3776 70.9714 64.6436C68.6203 65.8644 66.0432 66.4747 63.24 66.4747ZM109.402 66.4747C105.921 66.4747 102.779 65.7061 99.9753 64.1689C97.2173 62.5864 95.0471 60.4162 93.4646 57.6582C91.8822 54.9002 91.091 51.6449 91.091 47.8922C91.091 44.1395 91.8822 40.8842 93.4646 38.1262C95.0471 35.3682 97.2173 33.2206 99.9753 31.6834C102.779 30.1461 105.921 29.3775 109.402 29.3775C112.431 29.3775 115.144 30.0557 117.541 31.4121C119.937 32.7233 121.836 34.7352 123.237 37.448C124.639 40.1608 125.34 43.6422 125.34 47.8922C125.34 52.097 124.662 55.5784 123.305 58.3364C121.949 61.0492 120.072 63.0838 117.676 64.4402C115.28 65.7965 112.522 66.4747 109.402 66.4747ZM110.42 59.2181C112.454 59.2181 114.263 58.7659 115.845 57.8617C117.473 56.9574 118.761 55.6462 119.711 53.9281C120.705 52.21 121.203 50.1981 121.203 47.8922C121.203 45.5411 120.705 43.5292 119.711 41.8563C118.761 40.1382 117.473 38.827 115.845 37.9227C114.263 37.0185 112.454 36.5664 110.42 36.5664C108.385 36.5664 106.554 37.0185 104.926 37.9227C103.344 38.827 102.055 40.1382 101.06 41.8563C100.111 43.5292 99.6362 45.5411 99.6362 47.8922C99.6362 50.1981 100.111 52.21 101.06 53.9281C102.055 55.6462 103.344 56.9574 104.926 57.8617C106.554 58.7659 108.385 59.2181 110.42 59.2181ZM121.406 66V57.4548L121.745 47.8244L121.067 38.194V15.678H129.477V66H121.406ZM157.657 66.4747C153.633 66.4747 150.107 65.6835 147.077 64.1011C144.093 62.4734 141.765 60.258 140.092 57.4548C138.464 54.6515 137.651 51.464 137.651 47.8922C137.651 44.2752 138.442 41.0877 140.024 38.3297C141.652 35.5265 143.867 33.3336 146.671 31.7512C149.519 30.1687 152.752 29.3775 156.369 29.3775C159.895 29.3775 163.038 30.1461 165.796 31.6834C168.554 33.2206 170.724 35.3908 172.306 38.194C173.889 40.9972 174.68 44.2978 174.68 48.0957C174.68 48.4574 174.657 48.8643 174.612 49.3164C174.612 49.7685 174.59 50.1981 174.544 50.605H144.365V44.976H170.068L166.745 46.7393C166.79 44.6595 166.361 42.8284 165.457 41.2459C164.552 39.6634 163.309 38.4201 161.726 37.5158C160.189 36.6116 158.403 36.1594 156.369 36.1594C154.289 36.1594 152.458 36.6116 150.875 37.5158C149.338 38.4201 148.117 39.6861 147.213 41.3137C146.354 42.8962 145.925 44.7725 145.925 46.9427V48.2991C145.925 50.4693 146.422 52.3909 147.417 54.0638C148.411 55.7367 149.813 57.0252 151.621 57.9295C153.43 58.8337 155.51 59.2859 157.861 59.2859C159.895 59.2859 161.726 58.9694 163.354 58.3364C164.982 57.7034 166.429 56.7087 167.695 55.3523L172.239 60.5744C170.611 62.4734 168.554 63.9428 166.067 64.9827C163.625 65.9774 160.822 66.4747 157.657 66.4747ZM182.823 66V29.7844H190.894V39.7539L189.944 36.8376C191.029 34.3961 192.725 32.5424 195.031 31.2764C197.382 30.0105 200.298 29.3775 203.779 29.3775V37.448C203.418 37.3576 203.079 37.3124 202.762 37.3124C202.446 37.2672 202.129 37.2446 201.813 37.2446C198.602 37.2446 196.048 38.194 194.149 40.093C192.25 41.9467 191.301 44.7273 191.301 48.4348V66H182.823Z" fill="white"/>
<path d="M63.24 66.4747C60.1655 66.4747 57.4527 65.9096 55.1016 64.7792C52.7505 63.6037 50.9194 61.8404 49.6082 59.4893C48.2971 57.093 47.6415 54.0864 47.6415 50.4693V29.7844H56.1189V49.3164C56.1189 52.5717 56.8423 55.0132 58.2891 56.6409C59.7812 58.2234 61.8836 59.0146 64.5963 59.0146C66.5857 59.0146 68.3038 58.6077 69.7506 57.7938C71.2426 56.98 72.3956 55.7593 73.2094 54.1316C74.0685 52.5039 74.498 50.492 74.498 48.0957V29.7844H82.9754V66H74.9049V56.234L76.3291 59.2181C75.1084 61.5691 73.3224 63.3776 70.9714 64.6436C68.6203 65.8644 66.0432 66.4747 63.24 66.4747ZM109.402 66.4747C105.921 66.4747 102.779 65.7061 99.9753 64.1689C97.2173 62.5864 95.0471 60.4162 93.4646 57.6582C91.8822 54.9002 91.091 51.6449 91.091 47.8922C91.091 44.1395 91.8822 40.8842 93.4646 38.1262C95.0471 35.3682 97.2173 33.2206 99.9753 31.6834C102.779 30.1461 105.921 29.3775 109.402 29.3775C112.431 29.3775 115.144 30.0557 117.541 31.4121C119.937 32.7233 121.836 34.7352 123.237 37.448C124.639 40.1608 125.34 43.6422 125.34 47.8922C125.34 52.097 124.662 55.5784 123.305 58.3364C121.949 61.0492 120.072 63.0838 117.676 64.4402C115.28 65.7965 112.522 66.4747 109.402 66.4747ZM110.42 59.2181C112.454 59.2181 114.263 58.7659 115.845 57.8617C117.473 56.9574 118.761 55.6462 119.711 53.9281C120.705 52.21 121.203 50.1981 121.203 47.8922C121.203 45.5411 120.705 43.5292 119.711 41.8563C118.761 40.1382 117.473 38.827 115.845 37.9227C114.263 37.0185 112.454 36.5664 110.42 36.5664C108.385 36.5664 106.554 37.0185 104.926 37.9227C103.344 38.827 102.055 40.1382 101.06 41.8563C100.111 43.5292 99.6362 45.5411 99.6362 47.8922C99.6362 50.1981 100.111 52.21 101.06 53.9281C102.055 55.6462 103.344 56.9574 104.926 57.8617C106.554 58.7659 108.385 59.2181 110.42 59.2181ZM121.406 66V57.4548L121.745 47.8244L121.067 38.194V15.678H129.477V66H121.406ZM157.657 66.4747C153.633 66.4747 150.107 65.6835 147.077 64.1011C144.093 62.4734 141.765 60.258 140.092 57.4548C138.464 54.6515 137.651 51.464 137.651 47.8922C137.651 44.2752 138.442 41.0877 140.024 38.3297C141.652 35.5265 143.867 33.3336 146.671 31.7512C149.519 30.1687 152.752 29.3775 156.369 29.3775C159.895 29.3775 163.038 30.1461 165.796 31.6834C168.554 33.2206 170.724 35.3908 172.306 38.194C173.889 40.9972 174.68 44.2978 174.68 48.0957C174.68 48.4574 174.657 48.8643 174.612 49.3164C174.612 49.7685 174.59 50.1981 174.544 50.605H144.365V44.976H170.068L166.745 46.7393C166.79 44.6595 166.361 42.8284 165.457 41.2459C164.552 39.6634 163.309 38.4201 161.726 37.5158C160.189 36.6116 158.403 36.1594 156.369 36.1594C154.289 36.1594 152.458 36.6116 150.875 37.5158C149.338 38.4201 148.117 39.6861 147.213 41.3137C146.354 42.8962 145.925 44.7725 145.925 46.9427V48.2991C145.925 50.4693 146.422 52.3909 147.417 54.0638C148.411 55.7367 149.813 57.0252 151.621 57.9295C153.43 58.8337 155.51 59.2859 157.861 59.2859C159.895 59.2859 161.726 58.9694 163.354 58.3364C164.982 57.7034 166.429 56.7087 167.695 55.3523L172.239 60.5744C170.611 62.4734 168.554 63.9428 166.067 64.9827C163.625 65.9774 160.822 66.4747 157.657 66.4747ZM182.823 66V29.7844H190.894V39.7539L189.944 36.8376C191.029 34.3961 192.725 32.5424 195.031 31.2764C197.382 30.0105 200.298 29.3775 203.779 29.3775V37.448C203.418 37.3576 203.079 37.3124 202.762 37.3124C202.446 37.2672 202.129 37.2446 201.813 37.2446C198.602 37.2446 196.048 38.194 194.149 40.093C192.25 41.9467 191.301 44.7273 191.301 48.4348V66H182.823Z" fill="white"/>
<path d="M47.004 82.15H54.1104V83.3792H47.004V82.15ZM47.1577 89.0835H45.7364V75.6391H54.9554V76.8683H47.1577V89.0835ZM61.3749 89.1795C60.4017 89.1795 59.5246 88.9619 58.7436 88.5265C57.9753 88.0784 57.3671 87.4702 56.919 86.7019C56.4708 85.9209 56.2468 85.031 56.2468 84.0322C56.2468 83.0207 56.4708 82.1308 56.919 81.3625C57.3671 80.5943 57.9753 79.9925 58.7436 79.5572C59.5118 79.1218 60.3889 78.9041 61.3749 78.9041C62.3736 78.9041 63.2571 79.1218 64.0253 79.5572C64.8064 79.9925 65.4146 80.5943 65.8499 81.3625C66.2981 82.1308 66.5222 83.0207 66.5222 84.0322C66.5222 85.031 66.2981 85.9209 65.8499 86.7019C65.4146 87.4702 64.8064 88.0784 64.0253 88.5265C63.2443 88.9619 62.3608 89.1795 61.3749 89.1795ZM61.3749 87.9695C62.1047 87.9695 62.7513 87.8095 63.3147 87.4894C63.8781 87.1565 64.3198 86.6955 64.6399 86.1065C64.9728 85.5047 65.1393 84.8133 65.1393 84.0322C65.1393 83.2384 64.9728 82.5469 64.6399 81.9579C64.3198 81.369 63.8781 80.9144 63.3147 80.5943C62.7513 80.2614 62.1111 80.0949 61.3941 80.0949C60.677 80.0949 60.0368 80.2614 59.4734 80.5943C58.91 80.9144 58.4619 81.369 58.129 81.9579C57.7961 82.5469 57.6296 83.2384 57.6296 84.0322C57.6296 84.8133 57.7961 85.5047 58.129 86.1065C58.4619 86.6955 58.91 87.1565 59.4734 87.4894C60.0368 87.8095 60.6706 87.9695 61.3749 87.9695ZM73.4163 89.1795C72.4432 89.1795 71.5661 88.9619 70.7851 88.5265C70.0168 88.0784 69.4086 87.4702 68.9605 86.7019C68.5123 85.9209 68.2882 85.031 68.2882 84.0322C68.2882 83.0207 68.5123 82.1308 68.9605 81.3625C69.4086 80.5943 70.0168 79.9925 70.7851 79.5572C71.5533 79.1218 72.4304 78.9041 73.4163 78.9041C74.4151 78.9041 75.2985 79.1218 76.0668 79.5572C76.8479 79.9925 77.4561 80.5943 77.8914 81.3625C78.3395 82.1308 78.5636 83.0207 78.5636 84.0322C78.5636 85.031 78.3395 85.9209 77.8914 86.7019C77.4561 87.4702 76.8479 88.0784 76.0668 88.5265C75.2857 88.9619 74.4023 89.1795 73.4163 89.1795ZM73.4163 87.9695C74.1462 87.9695 74.7928 87.8095 75.3562 87.4894C75.9196 87.1565 76.3613 86.6955 76.6814 86.1065C77.0143 85.5047 77.1808 84.8133 77.1808 84.0322C77.1808 83.2384 77.0143 82.5469 76.6814 81.9579C76.3613 81.369 75.9196 80.9144 75.3562 80.5943C74.7928 80.2614 74.1526 80.0949 73.4355 80.0949C72.7185 80.0949 72.0783 80.2614 71.5149 80.5943C70.9515 80.9144 70.5034 81.369 70.1705 81.9579C69.8375 82.5469 69.6711 83.2384 69.6711 84.0322C69.6711 84.8133 69.8375 85.5047 70.1705 86.1065C70.5034 86.6955 70.9515 87.1565 71.5149 87.4894C72.0783 87.8095 72.7121 87.9695 73.4163 87.9695ZM85.3618 89.1795C84.4014 89.1795 83.5372 88.9619 82.7689 88.5265C82.0135 88.0912 81.4181 87.4894 80.9827 86.7211C80.5474 85.9401 80.3297 85.0438 80.3297 84.0322C80.3297 83.0079 80.5474 82.1116 80.9827 81.3433C81.4181 80.5751 82.0135 79.9797 82.7689 79.5572C83.5372 79.1218 84.4014 78.9041 85.3618 78.9041C86.2453 78.9041 87.0327 79.1026 87.7241 79.4995C88.4284 79.8965 88.9854 80.4791 89.3951 81.2473C89.8176 82.0028 90.0289 82.9311 90.0289 84.0322C90.0289 85.1206 89.824 86.0489 89.4143 86.8171C89.0046 87.5854 88.4476 88.1744 87.7433 88.5841C87.0519 88.9811 86.2581 89.1795 85.3618 89.1795ZM85.4578 87.9695C86.1748 87.9695 86.815 87.8095 87.3784 87.4894C87.9546 87.1565 88.4028 86.6955 88.7229 86.1065C89.0558 85.5047 89.2222 84.8133 89.2222 84.0322C89.2222 83.2384 89.0558 82.5469 88.7229 81.9579C88.4028 81.369 87.9546 80.9144 87.3784 80.5943C86.815 80.2614 86.1748 80.0949 85.4578 80.0949C84.7536 80.0949 84.1198 80.2614 83.5564 80.5943C82.993 80.9144 82.5448 81.369 82.2119 81.9579C81.879 82.5469 81.7126 83.2384 81.7126 84.0322C81.7126 84.8133 81.879 85.5047 82.2119 86.1065C82.5448 86.6955 82.993 87.1565 83.5564 87.4894C84.1198 87.8095 84.7536 87.9695 85.4578 87.9695ZM89.2606 89.0835V86.0489L89.3951 84.013L89.203 81.9772V74.8324H90.5667V89.0835H89.2606ZM105.556 89.1987C104.545 89.1987 103.604 89.0323 102.733 88.6994C101.875 88.3537 101.126 87.8735 100.486 87.2589C99.8584 86.6315 99.3655 85.908 99.007 85.0886C98.6612 84.2563 98.4884 83.3472 98.4884 82.3613C98.4884 81.3754 98.6612 80.4727 99.007 79.6532C99.3655 78.8209 99.8584 78.0975 100.486 77.4829C101.126 76.8555 101.875 76.3753 102.733 76.0424C103.591 75.6967 104.532 75.5238 105.556 75.5238C106.568 75.5238 107.503 75.6967 108.36 76.0424C109.218 76.3753 109.961 76.8491 110.588 77.4637C111.229 78.0783 111.722 78.8017 112.067 79.634C112.426 80.4663 112.605 81.3754 112.605 82.3613C112.605 83.3472 112.426 84.2563 112.067 85.0886C111.722 85.9209 111.229 86.6443 110.588 87.2589C109.961 87.8735 109.218 88.3537 108.36 88.6994C107.503 89.0323 106.568 89.1987 105.556 89.1987ZM105.556 87.9311C106.363 87.9311 107.106 87.7967 107.784 87.5278C108.476 87.2461 109.071 86.8556 109.57 86.3562C110.083 85.844 110.48 85.255 110.761 84.5892C111.043 83.9106 111.184 83.1679 111.184 82.3613C111.184 81.5546 111.043 80.8184 110.761 80.1526C110.48 79.4739 110.083 78.8849 109.57 78.3856C109.071 77.8734 108.476 77.4829 107.784 77.214C107.106 76.9323 106.363 76.7914 105.556 76.7914C104.75 76.7914 104.001 76.9323 103.309 77.214C102.618 77.4829 102.016 77.8734 101.504 78.3856C101.004 78.8849 100.607 79.4739 100.313 80.1526C100.031 80.8184 99.8905 81.5546 99.8905 82.3613C99.8905 83.1551 100.031 83.8914 100.313 84.57C100.607 85.2486 101.004 85.844 101.504 86.3562C102.016 86.8556 102.618 87.2461 103.309 87.5278C104.001 87.7967 104.75 87.9311 105.556 87.9311ZM115.503 89.0835V79.0002H116.809V81.7467L116.674 81.2665C116.956 80.4983 117.43 79.9157 118.096 79.5187C118.761 79.109 119.587 78.9041 120.573 78.9041V80.2294C120.522 80.2294 120.471 80.2294 120.419 80.2294C120.368 80.2166 120.317 80.2102 120.266 80.2102C119.203 80.2102 118.371 80.5367 117.769 81.1897C117.167 81.8299 116.866 82.7454 116.866 83.9362V89.0835H115.503ZM126.982 89.1795C126.021 89.1795 125.157 88.9619 124.389 88.5265C123.633 88.0912 123.038 87.4894 122.603 86.7211C122.167 85.9401 121.95 85.0438 121.95 84.0322C121.95 83.0079 122.167 82.1116 122.603 81.3433C123.038 80.5751 123.633 79.9797 124.389 79.5572C125.157 79.1218 126.021 78.9041 126.982 78.9041C127.865 78.9041 128.653 79.1026 129.344 79.4995C130.048 79.8965 130.605 80.4791 131.015 81.2473C131.438 82.0028 131.649 82.9311 131.649 84.0322C131.649 85.1206 131.444 86.0489 131.034 86.8171C130.625 87.5854 130.068 88.1744 129.363 88.5841C128.672 88.9811 127.878 89.1795 126.982 89.1795ZM127.078 87.9695C127.795 87.9695 128.435 87.8095 128.998 87.4894C129.575 87.1565 130.023 86.6955 130.343 86.1065C130.676 85.5047 130.842 84.8133 130.842 84.0322C130.842 83.2384 130.676 82.5469 130.343 81.9579C130.023 81.369 129.575 80.9144 128.998 80.5943C128.435 80.2614 127.795 80.0949 127.078 80.0949C126.374 80.0949 125.74 80.2614 125.176 80.5943C124.613 80.9144 124.165 81.369 123.832 81.9579C123.499 82.5469 123.333 83.2384 123.333 84.0322C123.333 84.8133 123.499 85.5047 123.832 86.1065C124.165 86.6955 124.613 87.1565 125.176 87.4894C125.74 87.8095 126.374 87.9695 127.078 87.9695ZM130.881 89.0835V86.0489L131.015 84.013L130.823 81.9772V74.8324H132.187V89.0835H130.881ZM140.267 89.1795C139.217 89.1795 138.296 88.9619 137.502 88.5265C136.708 88.0784 136.087 87.4702 135.639 86.7019C135.191 85.9209 134.966 85.031 134.966 84.0322C134.966 83.0335 135.178 82.15 135.6 81.3818C136.036 80.6135 136.625 80.0117 137.367 79.5764C138.123 79.1282 138.968 78.9041 139.902 78.9041C140.85 78.9041 141.689 79.1218 142.419 79.5572C143.161 79.9797 143.744 80.5815 144.166 81.3625C144.589 82.1308 144.8 83.0207 144.8 84.0322C144.8 84.0963 144.794 84.1667 144.781 84.2435C144.781 84.3075 144.781 84.3779 144.781 84.4548H136.004V83.4368H144.051L143.513 83.8402C143.513 83.1103 143.353 82.4637 143.033 81.9003C142.726 81.3241 142.303 80.876 141.766 80.5559C141.228 80.2358 140.607 80.0757 139.902 80.0757C139.211 80.0757 138.59 80.2358 138.039 80.5559C137.489 80.876 137.06 81.3241 136.753 81.9003C136.445 82.4765 136.292 83.1359 136.292 83.8786V84.0898C136.292 84.8581 136.458 85.5367 136.791 86.1257C137.137 86.7019 137.611 87.1565 138.212 87.4894C138.827 87.8095 139.525 87.9695 140.306 87.9695C140.92 87.9695 141.49 87.8607 142.015 87.643C142.553 87.4253 143.014 87.0924 143.398 86.6443L144.166 87.5278C143.718 88.0656 143.155 88.4753 142.476 88.757C141.81 89.0387 141.074 89.1795 140.267 89.1795ZM147.576 89.0835V79.0002H148.882V81.7467L148.747 81.2665C149.029 80.4983 149.503 79.9157 150.169 79.5187C150.834 79.109 151.66 78.9041 152.646 78.9041V80.2294C152.595 80.2294 152.544 80.2294 152.493 80.2294C152.441 80.2166 152.39 80.2102 152.339 80.2102C151.276 80.2102 150.444 80.5367 149.842 81.1897C149.24 81.8299 148.939 82.7454 148.939 83.9362V89.0835H147.576Z" fill="white"/>
<path d="M15.1557 19.6286L15.2413 8.26834L24.9512 13.8744L15.1557 19.6286Z" fill="white"/>
<path d="M22.7162 19.7429L22.8018 8.3826L32.5117 13.9886L22.7162 19.7429Z" fill="white"/>
<path d="M30.017 19.7429L30.1026 8.3826L39.8125 13.9886L30.017 19.7429Z" fill="white"/>
<path d="M15.2422 34.1221H39.2597L15.2422 45.559V34.1221Z" fill="white"/>
<rect y="8.69531" width="11.7254" height="57.0637" fill="white"/>
</svg>
