<svg width="29" height="29" viewBox="0 0 29 29" fill="none" xmlns="http://www.w3.org/2000/svg">
<path d="M27.4811 5.50276H22.4092V1.60128C22.4092 0.886004 21.824 0.300781 21.1087 0.300781C20.3934 0.300781 19.8082 0.886004 19.8082 1.60128V5.50276H14.7363C13.969 5.50276 13.3707 6.16601 13.4358 6.9333L13.5918 8.5069C18.3777 9.61232 22.4092 13.0066 22.4092 18.5077L22.4352 28.9117H24.646C25.7384 28.9117 26.6358 28.0663 26.7658 26.9999L28.7686 6.9333C28.8466 6.16601 28.2484 5.50276 27.4811 5.50276V5.50276ZM18.5077 26.3107H1.60128C0.886004 26.3107 0.300781 26.8959 0.300781 27.6112C0.300781 28.3264 0.886004 28.9117 1.60128 28.9117H18.5077C19.223 28.9117 19.8082 28.3264 19.8082 27.6112C19.8082 26.8959 19.223 26.3107 18.5077 26.3107ZM1.73132 18.5077H18.3777C19.184 18.5077 19.8212 17.7794 19.6651 16.9991C18.8198 12.7985 14.4372 10.6917 10.0545 10.6917C5.67182 10.6917 1.30216 12.7985 0.443836 16.9991C0.287776 17.7794 0.938023 18.5077 1.73132 18.5077V18.5077ZM18.5077 21.1087H1.60128C0.886004 21.1087 0.300781 21.6939 0.300781 22.4092C0.300781 23.1245 0.886004 23.7097 1.60128 23.7097H18.5077C19.223 23.7097 19.8082 23.1245 19.8082 22.4092C19.8082 21.6939 19.223 21.1087 18.5077 21.1087Z" fill="#6D8B74"/>
</svg>
