<svg width="97" height="97" viewBox="0 0 97 97" fill="none" xmlns="http://www.w3.org/2000/svg">
<path d="M92.15 17.6364H74.9545V4.40909C74.9545 1.98409 72.9704 0 70.5454 0C68.1204 0 66.1364 1.98409 66.1364 4.40909V17.6364H48.9409C46.3395 17.6364 44.3114 19.885 44.5318 22.4864L45.0609 27.8214C61.2864 31.5691 74.9545 43.0768 74.9545 61.7273L75.0427 97H82.5382C86.2418 97 89.2841 94.1341 89.725 90.5186L96.515 22.4864C96.7795 19.885 94.7514 17.6364 92.15 17.6364V17.6364ZM61.7273 88.1818H4.40909C1.98409 88.1818 0 90.1659 0 92.5909C0 95.0159 1.98409 97 4.40909 97H61.7273C64.1523 97 66.1364 95.0159 66.1364 92.5909C66.1364 90.1659 64.1523 88.1818 61.7273 88.1818ZM4.85 61.7273H61.2864C64.02 61.7273 66.1805 59.2582 65.6514 56.6127C62.7855 42.3714 47.9268 35.2286 33.0682 35.2286C18.2095 35.2286 3.395 42.3714 0.485 56.6127C-0.0440908 59.2582 2.16045 61.7273 4.85 61.7273V61.7273ZM61.7273 70.5455H4.40909C1.98409 70.5455 0 72.5295 0 74.9545C0 77.3795 1.98409 79.3636 4.40909 79.3636H61.7273C64.1523 79.3636 66.1364 77.3795 66.1364 74.9545C66.1364 72.5295 64.1523 70.5455 61.7273 70.5455Z" fill="white"/>
</svg>
