<svg width="38" height="38" viewBox="0 0 38 38" fill="none" xmlns="http://www.w3.org/2000/svg">
<path d="M29.925 32.1417L21.0583 23.275C20.2667 23.9083 19.3562 24.4097 18.3271 24.7792C17.2979 25.1486 16.2028 25.3333 15.0417 25.3333C12.1653 25.3333 9.73117 24.3374 7.73933 22.3456C5.74644 20.3527 4.75 17.9181 4.75 15.0417C4.75 12.1653 5.74644 9.73064 7.73933 7.73775C9.73117 5.74592 12.1653 4.75 15.0417 4.75C17.9181 4.75 20.3527 5.74592 22.3456 7.73775C24.3374 9.73064 25.3333 12.1653 25.3333 15.0417C25.3333 16.2028 25.1486 17.2979 24.7792 18.3271C24.4097 19.3562 23.9083 20.2667 23.275 21.0583L32.1812 29.9646C32.4715 30.2549 32.6167 30.6111 32.6167 31.0333C32.6167 31.4556 32.4583 31.825 32.1417 32.1417C31.8514 32.4319 31.4819 32.5771 31.0333 32.5771C30.5847 32.5771 30.2153 32.4319 29.925 32.1417ZM15.0417 22.1667C17.0208 22.1667 18.7034 21.4742 20.0893 20.0893C21.4742 18.7034 22.1667 17.0208 22.1667 15.0417C22.1667 13.0625 21.4742 11.3799 20.0893 9.994C18.7034 8.60911 17.0208 7.91667 15.0417 7.91667C13.0625 7.91667 11.3799 8.60911 9.994 9.994C8.60911 11.3799 7.91667 13.0625 7.91667 15.0417C7.91667 17.0208 8.60911 18.7034 9.994 20.0893C11.3799 21.4742 13.0625 22.1667 15.0417 22.1667Z" fill="black"/>
</svg>
